<?xml version="1.0" encoding="UTF-8" standalone="no"?>
<!-- Created with Inkscape (http://www.inkscape.org/) -->

<svg
   xmlns:dc="http://purl.org/dc/elements/1.1/"
   xmlns:cc="http://creativecommons.org/ns#"
   xmlns:rdf="http://www.w3.org/1999/02/22-rdf-syntax-ns#"
   xmlns:svg="http://www.w3.org/2000/svg"
   xmlns="http://www.w3.org/2000/svg"
   xmlns:sodipodi="http://sodipodi.sourceforge.net/DTD/sodipodi-0.dtd"
   xmlns:inkscape="http://www.inkscape.org/namespaces/inkscape"
   width="210mm"
   height="297mm"
   viewBox="0 0 210 297"
   version="1.1"
   id="svg8"
   sodipodi:docname="logo.svg"
   inkscape:version="0.92+devel unknown">
  <defs
     id="defs2" />
  <sodipodi:namedview
     id="base"
     pagecolor="#ffffff"
     bordercolor="#666666"
     borderopacity="1.0"
     inkscape:pageopacity="0.0"
     inkscape:pageshadow="2"
     inkscape:zoom="0.60696034"
     inkscape:cx="319.9321"
     inkscape:cy="525.37217"
     inkscape:document-units="mm"
     inkscape:current-layer="layer1"
     inkscape:document-rotation="0"
     showgrid="false"
     showguides="true"
     inkscape:guide-bbox="true"
     inkscape:window-width="1920"
     inkscape:window-height="1053"
     inkscape:window-x="0"
     inkscape:window-y="27"
     inkscape:window-maximized="1" />
  <metadata
     id="metadata5">
    <rdf:RDF>
      <cc:Work
         rdf:about="">
        <dc:format>image/svg+xml</dc:format>
        <dc:type
           rdf:resource="http://purl.org/dc/dcmitype/StillImage" />
        <dc:title></dc:title>
      </cc:Work>
    </rdf:RDF>
  </metadata>
  <g
     inkscape:label="Ebene 1"
     inkscape:groupmode="layer"
     id="layer1">
    <g
       id="g4418"
       transform="translate(3.2401782,-98.147989)">
      <g
         transform="matrix(0.5599508,0,0,0.5599508,2.3112714,51.636109)"
         id="g4336">
        <g
           id="g4859">
          <path
             inkscape:connector-curvature="0"
             id="path4809"
             transform="scale(0.26458333)"
             d="m 415.58984,450.10938 a 74.992882,74.992882 0 0 0 -6.65234,0.33593 l 2.74023,15.25977 a 59.55355,59.55355 0 0 1 3.91211,-0.15625 59.55355,59.55355 0 0 1 46.0293,21.83008 l 13.11133,-8.24219 a 74.992882,74.992882 0 0 0 -59.14063,-29.02734 z"
             style="opacity:1;fill:#2ca05a;fill-opacity:1;stroke:none;stroke-width:0.92470628;stroke-miterlimit:4;stroke-dasharray:none;stroke-dashoffset:0;stroke-opacity:1" />
          <path
             inkscape:connector-curvature="0"
             id="path4807"
             transform="scale(0.26458333)"
             d="m 396.29102,452.73438 a 74.992882,74.992882 0 0 0 -43.98047,32.1582 l 13.88476,6.97851 a 59.55355,59.55355 0 0 1 32.82227,-23.95117 z"
             style="opacity:1;fill:#ffcc00;fill-opacity:1;stroke:none;stroke-width:0.92470628;stroke-miterlimit:4;stroke-dasharray:none;stroke-dashoffset:0;stroke-opacity:1" />
          <path
             inkscape:connector-curvature="0"
             id="path4805"
             transform="scale(0.26458333)"
             d="m 481.76172,489.89648 -13.08399,8.22461 a 59.55355,59.55355 0 0 1 6.46485,26.98243 59.55355,59.55355 0 0 1 -9.7793,32.61132 l 11.8125,10.0293 a 74.992882,74.992882 0 0 0 13.40625,-42.64062 74.992882,74.992882 0 0 0 -8.82031,-35.20704 z"
             style="opacity:1;fill:#0000aa;fill-opacity:1;stroke:none;stroke-width:0.92470628;stroke-miterlimit:4;stroke-dasharray:none;stroke-dashoffset:0;stroke-opacity:1" />
          <path
             inkscape:connector-curvature="0"
             id="path4803"
             transform="scale(0.26458333)"
             d="m 346.41406,496.31641 a 74.992882,74.992882 0 0 0 -5.8164,28.78711 74.992882,74.992882 0 0 0 3.69531,23.09179 l 14.20508,-6.23828 a 59.55355,59.55355 0 0 1 -2.46094,-16.85351 59.55355,59.55355 0 0 1 4.20508,-21.83594 z"
             style="opacity:1;fill:#ff6600;fill-opacity:1;stroke:none;stroke-width:0.92470628;stroke-miterlimit:4;stroke-dasharray:none;stroke-dashoffset:0;stroke-opacity:1" />
          <path
             inkscape:connector-curvature="0"
             id="path4801"
             transform="scale(0.26458333)"
             d="m 363.48242,553.80273 -14.18945,6.23047 a 74.992882,74.992882 0 0 0 39.51562,35.09766 l 4.22071,-14.94531 a 59.55355,59.55355 0 0 1 -29.54688,-26.38282 z"
             style="opacity:1;fill:#ff0000;fill-opacity:1;stroke:none;stroke-width:0.92470628;stroke-miterlimit:4;stroke-dasharray:none;stroke-dashoffset:0;stroke-opacity:1" />
          <path
             inkscape:connector-curvature="0"
             id="path3462"
             transform="scale(0.26458333)"
             d="m 457.22852,567.66602 a 59.55355,59.55355 0 0 1 -41.63868,16.99023 59.55355,59.55355 0 0 1 -10.20312,-0.94141 l -4.21094,14.91407 a 74.992882,74.992882 0 0 0 14.41406,1.46679 74.992882,74.992882 0 0 0 53.4375,-22.41211 z"
             style="opacity:1;fill:#892ca0;fill-opacity:1;stroke:none;stroke-width:0.92470628;stroke-miterlimit:4;stroke-dasharray:none;stroke-dashoffset:0;stroke-opacity:1" />
        </g>
        <g
           id="path3556-0-2"
           style="opacity:1">
          <path
             inkscape:connector-curvature="0"
             style="color:#000000;font-style:normal;font-variant:normal;font-weight:normal;font-stretch:normal;font-size:medium;line-height:normal;font-family:sans-serif;font-variant-ligatures:normal;font-variant-position:normal;font-variant-caps:normal;font-variant-numeric:normal;font-variant-alternates:normal;font-variant-east-asian:normal;font-feature-settings:normal;text-indent:0;text-align:start;text-decoration:none;text-decoration-line:none;text-decoration-style:solid;text-decoration-color:#000000;letter-spacing:normal;word-spacing:normal;text-transform:none;writing-mode:lr-tb;direction:ltr;text-orientation:mixed;dominant-baseline:auto;baseline-shift:baseline;text-anchor:start;white-space:normal;shape-padding:0;clip-rule:nonzero;display:inline;overflow:visible;visibility:visible;isolation:auto;mix-blend-mode:normal;color-interpolation:sRGB;color-interpolation-filters:linearRGB;solid-color:#000000;solid-opacity:1;vector-effect:none;fill:#ffffff;fill-opacity:1;fill-rule:evenodd;stroke:none;stroke-width:3.4000001;stroke-linecap:butt;stroke-linejoin:miter;stroke-miterlimit:4;stroke-dasharray:none;stroke-dashoffset:0;stroke-opacity:1;color-rendering:auto;image-rendering:auto;shape-rendering:auto;text-rendering:auto;enable-background:accumulate"
             d="m 109.96118,138.61491 -9.38981,33.25124"
             id="path4773" />
        </g>
        <g
           id="path3554-3-2"
           style="opacity:1">
          <path
             inkscape:connector-curvature="0"
             style="color:#000000;font-style:normal;font-variant:normal;font-weight:normal;font-stretch:normal;font-size:medium;line-height:normal;font-family:sans-serif;font-variant-ligatures:normal;font-variant-position:normal;font-variant-caps:normal;font-variant-numeric:normal;font-variant-alternates:normal;font-variant-east-asian:normal;font-feature-settings:normal;text-indent:0;text-align:start;text-decoration:none;text-decoration-line:none;text-decoration-style:solid;text-decoration-color:#000000;letter-spacing:normal;word-spacing:normal;text-transform:none;writing-mode:lr-tb;direction:ltr;text-orientation:mixed;dominant-baseline:auto;baseline-shift:baseline;text-anchor:start;white-space:normal;shape-padding:0;clip-rule:nonzero;display:inline;overflow:visible;visibility:visible;isolation:auto;mix-blend-mode:normal;color-interpolation:sRGB;color-interpolation-filters:linearRGB;solid-color:#000000;solid-opacity:1;vector-effect:none;fill:#ffffff;fill-opacity:1;fill-rule:evenodd;stroke:none;stroke-width:3.4000001;stroke-linecap:butt;stroke-linejoin:miter;stroke-miterlimit:4;stroke-dasharray:none;stroke-dashoffset:0;stroke-opacity:1;color-rendering:auto;image-rendering:auto;shape-rendering:auto;text-rendering:auto;enable-background:accumulate"
             d="m 136.77205,121.76004 -26.81087,16.85487"
             id="path4757" />
        </g>
        <g
           id="path3556-8"
           style="opacity:1">
          <path
             inkscape:connector-curvature="0"
             style="color:#000000;font-style:normal;font-variant:normal;font-weight:normal;font-stretch:normal;font-size:medium;line-height:normal;font-family:sans-serif;font-variant-ligatures:normal;font-variant-position:normal;font-variant-caps:normal;font-variant-numeric:normal;font-variant-alternates:normal;font-variant-east-asian:normal;font-feature-settings:normal;text-indent:0;text-align:start;text-decoration:none;text-decoration-line:none;text-decoration-style:solid;text-decoration-color:#000000;letter-spacing:normal;word-spacing:normal;text-transform:none;writing-mode:lr-tb;direction:ltr;text-orientation:mixed;dominant-baseline:auto;baseline-shift:baseline;text-anchor:start;white-space:normal;shape-padding:0;clip-rule:nonzero;display:inline;overflow:visible;visibility:visible;isolation:auto;mix-blend-mode:normal;color-interpolation:sRGB;color-interpolation-filters:linearRGB;solid-color:#000000;solid-opacity:1;vector-effect:none;fill:#ffffff;fill-opacity:1;fill-rule:evenodd;stroke:none;stroke-width:3.4000001;stroke-linecap:butt;stroke-linejoin:miter;stroke-miterlimit:4;stroke-dasharray:none;stroke-dashoffset:0;stroke-opacity:1;color-rendering:auto;image-rendering:auto;shape-rendering:auto;text-rendering:auto;enable-background:accumulate"
             d="M 83.175523,150.37624 109.96118,138.61491"
             id="path4781" />
        </g>
        <g
           id="path3558-9"
           style="opacity:1">
          <path
             inkscape:connector-curvature="0"
             style="color:#000000;font-style:normal;font-variant:normal;font-weight:normal;font-stretch:normal;font-size:medium;line-height:normal;font-family:sans-serif;font-variant-ligatures:normal;font-variant-position:normal;font-variant-caps:normal;font-variant-numeric:normal;font-variant-alternates:normal;font-variant-east-asian:normal;font-feature-settings:normal;text-indent:0;text-align:start;text-decoration:none;text-decoration-line:none;text-decoration-style:solid;text-decoration-color:#000000;letter-spacing:normal;word-spacing:normal;text-transform:none;writing-mode:lr-tb;direction:ltr;text-orientation:mixed;dominant-baseline:auto;baseline-shift:baseline;text-anchor:start;white-space:normal;shape-padding:0;clip-rule:nonzero;display:inline;overflow:visible;visibility:visible;isolation:auto;mix-blend-mode:normal;color-interpolation:sRGB;color-interpolation-filters:linearRGB;solid-color:#000000;solid-opacity:1;vector-effect:none;fill:#ffffff;fill-opacity:1;fill-rule:evenodd;stroke:none;stroke-width:3.4000001;stroke-linecap:butt;stroke-linejoin:miter;stroke-miterlimit:4;stroke-dasharray:none;stroke-dashoffset:0;stroke-opacity:1;color-rendering:auto;image-rendering:auto;shape-rendering:auto;text-rendering:auto;enable-background:accumulate"
             d="m 109.96118,138.61491 24.41059,20.72338"
             id="path4765" />
        </g>
        <g
           id="path3560-7"
           style="opacity:1">
          <path
             inkscape:connector-curvature="0"
             style="color:#000000;font-style:normal;font-variant:normal;font-weight:normal;font-stretch:normal;font-size:medium;line-height:normal;font-family:sans-serif;font-variant-ligatures:normal;font-variant-position:normal;font-variant-caps:normal;font-variant-numeric:normal;font-variant-alternates:normal;font-variant-east-asian:normal;font-feature-settings:normal;text-indent:0;text-align:start;text-decoration:none;text-decoration-line:none;text-decoration-style:solid;text-decoration-color:#000000;letter-spacing:normal;word-spacing:normal;text-transform:none;writing-mode:lr-tb;direction:ltr;text-orientation:mixed;dominant-baseline:auto;baseline-shift:baseline;text-anchor:start;white-space:normal;shape-padding:0;clip-rule:nonzero;display:inline;overflow:visible;visibility:visible;isolation:auto;mix-blend-mode:normal;color-interpolation:sRGB;color-interpolation-filters:linearRGB;solid-color:#000000;solid-opacity:1;vector-effect:none;fill:#ffffff;fill-opacity:1;fill-rule:evenodd;stroke:none;stroke-width:3.4000001;stroke-linecap:butt;stroke-linejoin:miter;stroke-miterlimit:4;stroke-dasharray:none;stroke-dashoffset:0;stroke-opacity:1;color-rendering:auto;image-rendering:auto;shape-rendering:auto;text-rendering:auto;enable-background:accumulate"
             d="M 109.96118,138.61491 80.311185,123.71079"
             id="path4789" />
        </g>
        <g
           id="path3554-36"
           style="opacity:1">
          <path
             inkscape:connector-curvature="0"
             style="color:#000000;font-style:normal;font-variant:normal;font-weight:normal;font-stretch:normal;font-size:medium;line-height:normal;font-family:sans-serif;font-variant-ligatures:normal;font-variant-position:normal;font-variant-caps:normal;font-variant-numeric:normal;font-variant-alternates:normal;font-variant-east-asian:normal;font-feature-settings:normal;text-indent:0;text-align:start;text-decoration:none;text-decoration-line:none;text-decoration-style:solid;text-decoration-color:#000000;letter-spacing:normal;word-spacing:normal;text-transform:none;writing-mode:lr-tb;direction:ltr;text-orientation:mixed;dominant-baseline:auto;baseline-shift:baseline;text-anchor:start;white-space:normal;shape-padding:0;clip-rule:nonzero;display:inline;overflow:visible;visibility:visible;isolation:auto;mix-blend-mode:normal;color-interpolation:sRGB;color-interpolation-filters:linearRGB;solid-color:#000000;solid-opacity:1;vector-effect:none;fill:#ffffff;fill-opacity:1;fill-rule:evenodd;stroke:none;stroke-width:3.4000001;stroke-linecap:butt;stroke-linejoin:miter;stroke-miterlimit:4;stroke-dasharray:none;stroke-dashoffset:0;stroke-opacity:1;color-rendering:auto;image-rendering:auto;shape-rendering:auto;text-rendering:auto;enable-background:accumulate"
             d="m 109.96118,138.61491 -6.41696,-35.73185"
             id="path4749" />
        </g>
        <path
           inkscape:connector-curvature="0"
           style="color:#000000;font-style:normal;font-variant:normal;font-weight:normal;font-stretch:normal;font-size:medium;line-height:normal;font-family:sans-serif;font-variant-ligatures:normal;font-variant-position:normal;font-variant-caps:normal;font-variant-numeric:normal;font-variant-alternates:normal;font-variant-east-asian:normal;font-feature-settings:normal;text-indent:0;text-align:start;text-decoration:none;text-decoration-line:none;text-decoration-style:solid;text-decoration-color:#000000;letter-spacing:normal;word-spacing:normal;text-transform:none;writing-mode:lr-tb;direction:ltr;text-orientation:mixed;dominant-baseline:auto;baseline-shift:baseline;text-anchor:start;white-space:normal;shape-padding:0;clip-rule:nonzero;display:inline;overflow:visible;visibility:visible;opacity:1;isolation:auto;mix-blend-mode:normal;color-interpolation:sRGB;color-interpolation-filters:linearRGB;solid-color:#000000;solid-opacity:1;vector-effect:none;fill:#2ca05a;fill-opacity:1;fill-rule:evenodd;stroke:none;stroke-width:1.36500001;stroke-linecap:butt;stroke-linejoin:miter;stroke-miterlimit:4;stroke-dasharray:none;stroke-dashoffset:0;stroke-opacity:1;color-rendering:auto;image-rendering:auto;shape-rendering:auto;text-rendering:auto;enable-background:accumulate"
           d="m 109.30078,138.43555 -9.388671,33.25195 1.312501,0.37109 9.39062,-33.25195 z"
           id="path4821" />
        <path
           inkscape:connector-curvature="0"
           style="color:#000000;font-style:normal;font-variant:normal;font-weight:normal;font-stretch:normal;font-size:medium;line-height:normal;font-family:sans-serif;font-variant-ligatures:normal;font-variant-position:normal;font-variant-caps:normal;font-variant-numeric:normal;font-variant-alternates:normal;font-variant-east-asian:normal;font-feature-settings:normal;text-indent:0;text-align:start;text-decoration:none;text-decoration-line:none;text-decoration-style:solid;text-decoration-color:#000000;letter-spacing:normal;word-spacing:normal;text-transform:none;writing-mode:lr-tb;direction:ltr;text-orientation:mixed;dominant-baseline:auto;baseline-shift:baseline;text-anchor:start;white-space:normal;shape-padding:0;clip-rule:nonzero;display:inline;overflow:visible;visibility:visible;opacity:1;isolation:auto;mix-blend-mode:normal;color-interpolation:sRGB;color-interpolation-filters:linearRGB;solid-color:#000000;solid-opacity:1;vector-effect:none;fill:#ff6600;fill-opacity:1;fill-rule:evenodd;stroke:none;stroke-width:1.36500001;stroke-linecap:butt;stroke-linejoin:miter;stroke-miterlimit:4;stroke-dasharray:none;stroke-dashoffset:0;stroke-opacity:1;color-rendering:auto;image-rendering:auto;shape-rendering:auto;text-rendering:auto;enable-background:accumulate"
           d="m 136.40625,121.18945 -26.81055,16.85352 0.72657,1.15625 26.81054,-16.85547 z"
           id="path4827" />
        <path
           inkscape:connector-curvature="0"
           style="color:#000000;font-style:normal;font-variant:normal;font-weight:normal;font-stretch:normal;font-size:medium;line-height:normal;font-family:sans-serif;font-variant-ligatures:normal;font-variant-position:normal;font-variant-caps:normal;font-variant-numeric:normal;font-variant-alternates:normal;font-variant-east-asian:normal;font-feature-settings:normal;text-indent:0;text-align:start;text-decoration:none;text-decoration-line:none;text-decoration-style:solid;text-decoration-color:#000000;letter-spacing:normal;word-spacing:normal;text-transform:none;writing-mode:lr-tb;direction:ltr;text-orientation:mixed;dominant-baseline:auto;baseline-shift:baseline;text-anchor:start;white-space:normal;shape-padding:0;clip-rule:nonzero;display:inline;overflow:visible;visibility:visible;opacity:1;isolation:auto;mix-blend-mode:normal;color-interpolation:sRGB;color-interpolation-filters:linearRGB;solid-color:#000000;solid-opacity:1;vector-effect:none;fill:#0000aa;fill-opacity:1;fill-rule:evenodd;stroke:none;stroke-width:1.36500001;stroke-linecap:butt;stroke-linejoin:miter;stroke-miterlimit:4;stroke-dasharray:none;stroke-dashoffset:0;stroke-opacity:1;color-rendering:auto;image-rendering:auto;shape-rendering:auto;text-rendering:auto;enable-background:accumulate"
           d="m 109.68359,137.99609 -26.785152,11.76172 0.548828,1.25 26.785154,-11.76172 z"
           id="path4833" />
        <path
           inkscape:connector-curvature="0"
           style="color:#000000;font-style:normal;font-variant:normal;font-weight:normal;font-stretch:normal;font-size:medium;line-height:normal;font-family:sans-serif;font-variant-ligatures:normal;font-variant-position:normal;font-variant-caps:normal;font-variant-numeric:normal;font-variant-alternates:normal;font-variant-east-asian:normal;font-feature-settings:normal;text-indent:0;text-align:start;text-decoration:none;text-decoration-line:none;text-decoration-style:solid;text-decoration-color:#000000;letter-spacing:normal;word-spacing:normal;text-transform:none;writing-mode:lr-tb;direction:ltr;text-orientation:mixed;dominant-baseline:auto;baseline-shift:baseline;text-anchor:start;white-space:normal;shape-padding:0;clip-rule:nonzero;display:inline;overflow:visible;visibility:visible;opacity:1;isolation:auto;mix-blend-mode:normal;color-interpolation:sRGB;color-interpolation-filters:linearRGB;solid-color:#000000;solid-opacity:1;vector-effect:none;fill:#ffcc00;fill-opacity:1;fill-rule:evenodd;stroke:none;stroke-width:1.36500001;stroke-linecap:butt;stroke-linejoin:miter;stroke-miterlimit:4;stroke-dasharray:none;stroke-dashoffset:0;stroke-opacity:1;color-rendering:auto;image-rendering:auto;shape-rendering:auto;text-rendering:auto;enable-background:accumulate"
           d="m 110.40039,138.10156 -0.88477,1.04102 24.41211,20.72265 0.88282,-1.04101 z"
           id="path4839" />
        <path
           inkscape:connector-curvature="0"
           style="color:#000000;font-style:normal;font-variant:normal;font-weight:normal;font-stretch:normal;font-size:medium;line-height:normal;font-family:sans-serif;font-variant-ligatures:normal;font-variant-position:normal;font-variant-caps:normal;font-variant-numeric:normal;font-variant-alternates:normal;font-variant-east-asian:normal;font-feature-settings:normal;text-indent:0;text-align:start;text-decoration:none;text-decoration-line:none;text-decoration-style:solid;text-decoration-color:#000000;letter-spacing:normal;word-spacing:normal;text-transform:none;writing-mode:lr-tb;direction:ltr;text-orientation:mixed;dominant-baseline:auto;baseline-shift:baseline;text-anchor:start;white-space:normal;shape-padding:0;clip-rule:nonzero;display:inline;overflow:visible;visibility:visible;opacity:1;isolation:auto;mix-blend-mode:normal;color-interpolation:sRGB;color-interpolation-filters:linearRGB;solid-color:#000000;solid-opacity:1;vector-effect:none;fill:#892ca0;fill-opacity:1;fill-rule:evenodd;stroke:none;stroke-width:1.36500001;stroke-linecap:butt;stroke-linejoin:miter;stroke-miterlimit:4;stroke-dasharray:none;stroke-dashoffset:0;stroke-opacity:1;color-rendering:auto;image-rendering:auto;shape-rendering:auto;text-rendering:auto;enable-background:accumulate"
           d="m 80.615234,123.10742 -0.613281,1.21875 29.650387,14.9043 0.61328,-1.21875 z"
           id="path4845" />
        <path
           inkscape:connector-curvature="0"
           style="color:#000000;font-style:normal;font-variant:normal;font-weight:normal;font-stretch:normal;font-size:medium;line-height:normal;font-family:sans-serif;font-variant-ligatures:normal;font-variant-position:normal;font-variant-caps:normal;font-variant-numeric:normal;font-variant-alternates:normal;font-variant-east-asian:normal;font-feature-settings:normal;text-indent:0;text-align:start;text-decoration:none;text-decoration-line:none;text-decoration-style:solid;text-decoration-color:#000000;letter-spacing:normal;word-spacing:normal;text-transform:none;writing-mode:lr-tb;direction:ltr;text-orientation:mixed;dominant-baseline:auto;baseline-shift:baseline;text-anchor:start;white-space:normal;shape-padding:0;clip-rule:nonzero;display:inline;overflow:visible;visibility:visible;opacity:1;isolation:auto;mix-blend-mode:normal;color-interpolation:sRGB;color-interpolation-filters:linearRGB;solid-color:#000000;solid-opacity:1;vector-effect:none;fill:#ff0000;fill-opacity:1;fill-rule:evenodd;stroke:none;stroke-width:1.36500001;stroke-linecap:butt;stroke-linejoin:miter;stroke-miterlimit:4;stroke-dasharray:none;stroke-dashoffset:0;stroke-opacity:1;color-rendering:auto;image-rendering:auto;shape-rendering:auto;text-rendering:auto;enable-background:accumulate"
           d="m 104.21289,102.76953 -1.34375,0.24024 6.41797,35.73242 1.34375,-0.24219 z"
           id="path4851" />
        <circle
           style="opacity:1;fill:#800000;fill-opacity:1;stroke:none;stroke-width:0.62338847;stroke-miterlimit:4;stroke-dasharray:none;stroke-dashoffset:0;stroke-opacity:1"
           id="path3546"
           cx="109.95815"
           cy="138.65916"
           r="3.0389459" />
        <circle
           style="opacity:1;fill:#0000aa;fill-opacity:1;stroke:none;stroke-width:0.62338847;stroke-miterlimit:4;stroke-dasharray:none;stroke-dashoffset:0;stroke-opacity:1"
           id="path3546-5"
           cx="137.11459"
           cy="121.61884"
           r="3.0389459" />
        <circle
           style="opacity:1;fill:#ffcc00;fill-opacity:1;stroke:none;stroke-width:0.62338847;stroke-miterlimit:4;stroke-dasharray:none;stroke-dashoffset:0;stroke-opacity:1"
           id="path3546-5-6"
           cx="103.54595"
           cy="103.24556"
           r="3.0389459" />
        <circle
           style="opacity:1;fill:#ff6600;fill-opacity:1;stroke:none;stroke-width:0.62338847;stroke-miterlimit:4;stroke-dasharray:none;stroke-dashoffset:0;stroke-opacity:1"
           id="path3546-5-2"
           cx="80.134392"
           cy="123.76572"
           r="3.0389459" />
        <circle
           style="opacity:1;fill:#2ca05a;fill-opacity:1;stroke:none;stroke-width:0.62338847;stroke-miterlimit:4;stroke-dasharray:none;stroke-dashoffset:0;stroke-opacity:1"
           id="path3546-5-9"
           cx="82.439705"
           cy="150.64677"
           r="3.0389459" />
        <circle
           style="opacity:1;fill:#ff0000;fill-opacity:1;stroke:none;stroke-width:0.62338847;stroke-miterlimit:4;stroke-dasharray:none;stroke-dashoffset:0;stroke-opacity:1"
           id="path3546-5-1"
           cx="101.02437"
           cy="170.7596"
           r="3.0389459" />
        <circle
           style="opacity:1;fill:#892ca0;fill-opacity:1;stroke:none;stroke-width:0.62338847;stroke-miterlimit:4;stroke-dasharray:none;stroke-dashoffset:0;stroke-opacity:1"
           id="path3546-5-27"
           cx="133.66565"
           cy="158.67528"
           r="3.0389459" />
      </g>
      <path
         d="m 89.961129,128.74186 c 0,2.71597 -0.06036,5.65324 -0.221301,7.86625 0.181065,-0.0402 0.58343,-0.12071 1.046151,-0.12071 0.160946,0 0.603549,0.0201 1.28757,0.12071 -0.221301,-3.03786 -0.140828,-6.19643 -0.140828,-8.63074 0,-1.36805 0.02012,-2.77633 0.04024,-4.16449 2.414195,0.0201 3.661528,0.16095 4.285195,0.28166 -0.04024,-0.2213 -0.08047,-0.40237 -0.08047,-0.70414 0,-0.30178 0.04024,-0.52308 0.08047,-0.70414 -1.28757,0.12071 -3.420109,0.12071 -5.391701,0.12071 -1.589345,0 -4.164485,0 -5.411819,-0.12071 0.04024,0.20118 0.08047,0.38225 0.08047,0.70414 0,0.30177 -0.04024,0.48284 -0.08047,0.70414 0.885204,-0.18107 2.353839,-0.26154 4.46626,-0.28166 0.02012,1.36805 0.04024,3.09822 0.04024,4.92898 z"
         style="font-style:normal;font-variant:normal;font-weight:normal;font-stretch:normal;font-size:medium;line-height:12.57392979px;font-family:Optima;-inkscape-font-specification:Optima;letter-spacing:-0.48154157px;word-spacing:0px;fill:#800000;fill-opacity:1;stroke:none;stroke-width:0.50295722px;stroke-linecap:butt;stroke-linejoin:miter;stroke-opacity:1"
         id="path4360"
         inkscape:connector-curvature="0" />
      <path
         d="m 99.706102,129.7679 c 1.528988,-0.0402 1.931358,-0.0402 3.862708,-0.0402 2.01183,0 2.51479,0 3.86271,0.0604 v 3.01775 c 0,0.50295 -0.0805,2.65561 -0.14083,3.80235 0.50296,-0.0805 0.82485,-0.12071 1.14675,-0.12071 0.34201,0 0.6639,0.0604 1.04615,0.12071 -0.10059,-1.97159 -0.12071,-2.63549 -0.12071,-4.26507 0,-2.99763 0.0402,-6.29703 0.2213,-9.65678 -0.32189,0.0805 -0.62367,0.12071 -1.12662,0.12071 -0.52308,0 -0.80474,-0.0402 -1.12663,-0.12071 0.12071,2.83668 0.14083,3.13845 0.10059,5.87454 -1.22721,0.0402 -2.15265,0.0603 -3.72188,0.0603 -1.32781,0 -2.67573,-0.0402 -4.003538,-0.0805 -0.04024,-2.27337 0.10059,-5.25087 0.140829,-5.85442 -0.321893,0.0805 -0.583431,0.12071 -1.126625,0.12071 -0.543194,0 -0.804732,-0.0402 -1.126624,-0.12071 0.160946,4.52661 0.181064,5.02957 0.181064,6.57868 0,2.63549 -0.06035,3.76212 -0.261537,7.34317 0.342011,-0.0603 0.684022,-0.12071 1.146742,-0.12071 0.442602,0 0.764495,0.0604 1.086391,0.12071 -0.0402,-1.50887 -0.0402,-2.01182 -0.0402,-3.84259 z"
         style="font-style:normal;font-variant:normal;font-weight:normal;font-stretch:normal;font-size:medium;line-height:12.57392979px;font-family:Optima;-inkscape-font-specification:Optima;letter-spacing:-0.48154157px;word-spacing:0px;fill:#800000;fill-opacity:1;stroke:none;stroke-width:0.50295722px;stroke-linecap:butt;stroke-linejoin:miter;stroke-opacity:1"
         id="path4362"
         inkscape:connector-curvature="0" />
      <path
         d="m 114.19984,128.76198 c -0.0201,-1.06627 -0.0201,-1.30769 -0.0201,-2.61538 0,-1.18697 0,-1.52899 0.0402,-2.3136 0.86509,-0.0402 1.22722,-0.0402 1.95147,-0.0402 1.7503,0 2.45444,0.12071 3.19881,0.26154 -0.0402,-0.20118 -0.0805,-0.36213 -0.0805,-0.64378 0,-0.26154 0.0402,-0.48284 0.0805,-0.70414 -1.02603,0.10059 -2.03195,0.12071 -3.05798,0.12071 -1.40828,0 -2.79644,0 -4.20472,-0.12071 0.12071,1.97159 0.16095,4.68756 0.16095,6.69939 0,4.38578 -0.1006,5.69347 -0.2213,7.20234 1.5491,-0.0603 3.11833,-0.12071 4.66744,-0.12071 0.92544,0 1.871,0 2.79644,0.12071 -0.0402,-0.20118 -0.0805,-0.36213 -0.0805,-0.64378 0,-0.28166 0.0402,-0.46272 0.0805,-0.68402 -2.37396,0.24142 -4.00354,0.24142 -5.29111,0.24142 -0.0201,-0.5432 -0.0603,-2.07219 -0.0603,-3.11834 0,-0.86508 0.0201,-1.77041 0.0402,-2.63549 0.50296,-0.0201 1.08639,-0.0402 1.62958,-0.0402 0.86509,0 2.07219,0.0604 3.11834,0.20118 -0.0201,-0.2213 -0.0805,-0.40236 -0.0805,-0.62366 0,-0.28166 0.0402,-0.46273 0.0805,-0.68403 -1.56923,0.18107 -3.15857,0.16095 -4.74792,0.14083 z"
         style="font-style:normal;font-variant:normal;font-weight:normal;font-stretch:normal;font-size:medium;line-height:12.57392979px;font-family:Optima;-inkscape-font-specification:Optima;letter-spacing:-0.48154157px;word-spacing:0px;fill:#800000;fill-opacity:1;stroke:none;stroke-width:0.50295722px;stroke-linecap:butt;stroke-linejoin:miter;stroke-opacity:1"
         id="path4364"
         inkscape:connector-curvature="0" />
      <path
         d="m 135.46617,136.60811 c 0.34201,-0.0603 0.6639,-0.12071 1.24733,-0.12071 0.36213,0 0.58343,0.0402 1.12663,0.12071 -0.0805,-0.26153 -0.1006,-0.40236 -0.12071,-0.54319 -0.52308,-3.23904 -1.18698,-9.21418 -1.6497,-13.45913 -0.16095,0.0201 -0.28166,0.0402 -0.38225,0.0402 -0.12071,0 -0.2213,-0.0201 -0.36213,-0.0402 -0.34201,0.76449 -0.4426,0.96567 -0.92544,1.91123 -1.18698,2.25325 -1.54911,2.91715 -4.78815,8.93252 -1.28757,-2.07218 -5.23076,-9.51595 -5.81419,-10.84375 -0.14083,0.0201 -0.30177,0.0402 -0.40237,0.0402 -0.1207,0 -0.24141,-0.0201 -0.34201,-0.0402 -0.46272,4.4059 -1.871,13.05676 -2.07218,14.00232 0.20118,-0.0402 0.56331,-0.12071 0.96568,-0.12071 0.26154,0 0.4426,0.0402 0.76449,0.12071 -0.0201,-1.81064 0.34201,-7.12187 0.82485,-10.13961 1.32781,2.3136 2.93727,5.3917 4.34555,8.10767 0.36213,0.70414 0.58343,1.20709 0.94556,2.03194 0.10059,-0.0201 0.18107,-0.0402 0.26154,-0.0402 0.0805,0 0.18107,0.0201 0.28166,0.0402 0.24142,-0.62366 0.42248,-1.12662 1.04615,-2.39407 1.3278,-2.67573 2.71597,-5.31123 4.16448,-7.92661 0.0604,0.5432 0.86509,8.16803 0.88521,10.32068 z"
         style="font-style:normal;font-variant:normal;font-weight:normal;font-stretch:normal;font-size:medium;line-height:12.57392979px;font-family:Optima;-inkscape-font-specification:Optima;letter-spacing:-0.48154157px;word-spacing:0px;fill:#800000;fill-opacity:1;stroke:none;stroke-width:0.50295722px;stroke-linecap:butt;stroke-linejoin:miter;stroke-opacity:1"
         id="path4366"
         inkscape:connector-curvature="0" />
      <path
         d="m 140.28921,129.446 c 0,3.94319 -0.0603,4.96922 -0.20118,7.16211 0.32189,-0.0603 0.62367,-0.12071 1.06627,-0.12071 0.4426,0 0.86508,0.0604 1.24733,0.12071 -0.0603,-1.50887 -0.14083,-3.11833 -0.14083,-6.73962 0,-2.39408 0.0402,-4.78816 0.16095,-7.18223 -0.34201,0.0805 -0.60355,0.12071 -1.16686,0.12071 -0.54319,0 -0.78461,-0.0402 -1.10651,-0.12071 0.14083,3.68165 0.14083,3.86271 0.14083,6.75974 z"
         style="font-style:normal;font-variant:normal;font-weight:normal;font-stretch:normal;font-size:medium;line-height:12.57392979px;font-family:Optima;-inkscape-font-specification:Optima;letter-spacing:-0.48154157px;word-spacing:0px;fill:#800000;fill-opacity:1;stroke:none;stroke-width:0.50295722px;stroke-linecap:butt;stroke-linejoin:miter;stroke-opacity:1"
         id="path4368"
         inkscape:connector-curvature="0" />
      <path
         d="m 152.19412,125.24128 c 0.0603,-0.68402 0.42248,-1.48875 0.58343,-1.79053 -0.48284,-0.32189 -1.85089,-0.92544 -3.42011,-0.92544 -2.37396,0 -4.46626,1.30769 -4.46626,3.90295 0,0.92544 0.32189,1.93136 1.00591,2.49467 0.5432,0.48284 0.80473,0.58343 3.15857,1.56922 1.34793,0.5432 2.49467,1.14675 2.49467,2.77633 0,1.28757 -0.86509,2.67573 -2.97751,2.67573 -1.58934,0 -2.77632,-0.8852 -3.35975,-2.0923 h -0.26154 c -0.0201,0.26154 -0.0603,0.86508 -0.36213,1.89112 1.04615,0.78461 2.33372,1.1065 3.66153,1.1065 3.58106,0 5.04969,-2.39407 5.04969,-4.48637 0,-0.7645 -0.20118,-1.83077 -1.12662,-2.57515 -0.70414,-0.58343 -1.08639,-0.72425 -3.27928,-1.56922 -1.02604,-0.40237 -2.35384,-0.94556 -2.35384,-2.53491 0,-0.70414 0.38224,-2.3136 2.57514,-2.3136 1.85088,0 2.5349,1.10651 2.79644,1.871 z"
         style="font-style:normal;font-variant:normal;font-weight:normal;font-stretch:normal;font-size:medium;line-height:12.57392979px;font-family:Optima;-inkscape-font-specification:Optima;letter-spacing:-0.48154157px;word-spacing:0px;fill:#800000;fill-opacity:1;stroke:none;stroke-width:0.50295722px;stroke-linecap:butt;stroke-linejoin:miter;stroke-opacity:1"
         id="path4370"
         inkscape:connector-curvature="0" />
    </g>
  </g>
</svg>
